<?xml version="1.0" encoding="utf-8"?>
<!-- Generator: Adobe Illustrator 22.0.0, SVG Export Plug-In . SVG Version: 6.00 Build 0)  -->
<svg version="1.1" id="Layer_1" xmlns="http://www.w3.org/2000/svg" xmlns:xlink="http://www.w3.org/1999/xlink" x="0px" y="0px"
	 viewBox="0 0 87 23" style="enable-background:new 0 0 87 23;" xml:space="preserve">
<style type="text/css">
	.st0{fill:#B1B4BC;}
	.st1{fill:#CED1D6;}
	.st2{fill:#E8EAEF;}
	.st3{fill:#FFFFFF;}
	.st4{fill:#333333;}
	.st5{fill:#007EFF;}
	.st6{fill:#00A6FF;}
	.st7{fill:#00D4FF;}
	.st8{fill:#00F5FF;}
	.st9{fill:#00C9FF;}
	.st10{fill:#DEFEFF;}
	.st11{fill:#AEEAFF;}
	.st12{fill:#007FB7;}
	.st13{fill:#00638E;}
	.st14{fill:#00B7FF;}
	.st15{fill:#FAFDFF;}
	.st16{fill:#94D4FF;}
	.st17{fill:#007CB2;}
	.st18{fill:#008AB8;}
	.st19{fill:#0091B8;}
	.st20{fill:#0076BD;}
	.st21{fill:#4D4D4D;}
	.st22{fill:#0062B2;}
	.st23{fill:#00AFC6;}
	.st24{fill:#F2F7F9;}
	.st25{fill:#009FAB;}
	.st26{fill:#B7EDEB;}
	.st27{fill:#9BE0D9;}
	.st28{fill:#00C4C4;}
	.st29{fill:#3272B2;}
	.st30{fill:#0068FF;}
	.st31{fill:#1AE0B1;}
	.st32{fill:none;stroke:#4BB9EA;stroke-miterlimit:10;}
</style>
<g>
	<path class="st3" d="M0.4,17.6V0.9h5.2c0.8,0,1.6,0.1,2.2,0.3S9.1,1.6,9.5,2c0.5,0.4,0.8,0.9,1,1.4c0.2,0.6,0.4,1.3,0.4,2
		c0,0.4,0,0.7-0.1,1.1c-0.1,0.4-0.2,0.7-0.4,1c-0.2,0.3-0.4,0.6-0.7,0.8C9.5,8.6,9.2,8.8,8.8,9c0.4,0.1,0.8,0.3,1.1,0.6
		c0.3,0.2,0.5,0.5,0.7,0.9c0.2,0.3,0.3,0.7,0.4,1.1c0.1,0.4,0.1,0.8,0.1,1.2c0,1.6-0.4,2.8-1.3,3.7C9,17.2,7.7,17.6,6,17.6H0.4z
		 M3.8,7.9h1.8c0.7,0,1.2-0.2,1.5-0.5C7.4,7,7.6,6.5,7.6,5.8c0-0.8-0.2-1.3-0.5-1.6C6.8,3.9,6.3,3.7,5.6,3.7H3.8V7.9z M3.8,10.3v4.5
		H6c0.3,0,0.6-0.1,0.8-0.2s0.4-0.3,0.6-0.5c0.1-0.2,0.3-0.4,0.3-0.7c0.1-0.3,0.1-0.5,0.1-0.9c0-0.7-0.1-1.3-0.4-1.7
		c-0.3-0.4-0.7-0.6-1.3-0.6H3.8z"/>
	<path class="st3" d="M12.4,17.6V0.9h5.2c0.8,0,1.6,0.1,2.2,0.3c0.7,0.2,1.2,0.5,1.7,0.8c0.5,0.4,0.8,0.9,1,1.4s0.4,1.3,0.4,2
		c0,0.4,0,0.7-0.1,1.1c-0.1,0.4-0.2,0.7-0.4,1c-0.2,0.3-0.4,0.6-0.7,0.8c-0.3,0.2-0.6,0.5-0.9,0.6c0.4,0.1,0.8,0.3,1.1,0.6
		c0.3,0.2,0.5,0.5,0.7,0.9s0.3,0.7,0.4,1.1c0.1,0.4,0.1,0.8,0.1,1.2c0,1.6-0.4,2.8-1.3,3.7c-0.9,0.8-2.2,1.2-3.9,1.2H12.4z
		 M15.8,7.9h1.8c0.7,0,1.2-0.2,1.5-0.5c0.3-0.3,0.5-0.9,0.5-1.5c0-0.8-0.2-1.3-0.5-1.6c-0.3-0.3-0.8-0.5-1.5-0.5h-1.8V7.9z
		 M15.8,10.3v4.5H18c0.3,0,0.6-0.1,0.8-0.2s0.4-0.3,0.6-0.5c0.1-0.2,0.3-0.4,0.3-0.7c0.1-0.3,0.1-0.5,0.1-0.9c0-0.7-0.1-1.3-0.4-1.7
		c-0.3-0.4-0.7-0.6-1.3-0.6H15.8z"/>
	<path class="st3" d="M35.8,12c-0.1,1.9-0.6,3.3-1.6,4.3c-1,1-2.4,1.5-4.2,1.5c-0.9,0-1.8-0.2-2.5-0.5c-0.7-0.3-1.3-0.8-1.8-1.4
		c-0.5-0.6-0.9-1.4-1.1-2.2c-0.3-0.9-0.4-1.9-0.4-3.1V7.8c0-1.2,0.1-2.2,0.4-3.1c0.3-0.9,0.7-1.6,1.2-2.2c0.5-0.6,1.1-1.1,1.9-1.4
		c0.7-0.3,1.5-0.5,2.5-0.5c1.8,0,3.2,0.5,4.1,1.5c0.9,1,1.5,2.5,1.6,4.4h-3.4c0-0.6-0.1-1.1-0.2-1.5c-0.1-0.4-0.2-0.7-0.4-1
		c-0.2-0.2-0.4-0.4-0.7-0.5c-0.3-0.1-0.7-0.1-1.1-0.1c-0.5,0-0.8,0.1-1.2,0.2c-0.3,0.2-0.6,0.4-0.8,0.7c-0.2,0.3-0.3,0.8-0.4,1.3
		c-0.1,0.6-0.1,1.2-0.1,2v2.9c0,0.8,0,1.4,0.1,2c0.1,0.6,0.2,1,0.4,1.3c0.2,0.3,0.4,0.6,0.8,0.8c0.3,0.2,0.7,0.2,1.2,0.2
		c0.4,0,0.8,0,1.1-0.1s0.5-0.2,0.7-0.5c0.2-0.2,0.3-0.5,0.4-0.9c0.1-0.4,0.2-0.9,0.2-1.5H35.8z"/>
	<path class="st3" d="M40.2,17.6h-3.4V0.9h3.4V17.6z"/>
	<path class="st3" d="M43.4,5.2l0,2c0.4-0.7,0.8-1.2,1.4-1.6c0.6-0.4,1.2-0.6,1.9-0.6c0.5,0,1,0.1,1.4,0.3c0.4,0.2,0.8,0.4,1,0.8
		c0.3,0.4,0.5,0.8,0.7,1.4c0.2,0.6,0.2,1.3,0.2,2.1v8.1h-1.3V9.5c0-0.6-0.1-1.2-0.2-1.6c-0.1-0.4-0.3-0.8-0.5-1
		c-0.2-0.3-0.5-0.4-0.8-0.6c-0.3-0.1-0.6-0.2-1-0.2c-0.4,0-0.7,0.1-1,0.2c-0.3,0.2-0.6,0.4-0.9,0.6c-0.3,0.3-0.5,0.6-0.7,0.9
		c-0.2,0.3-0.3,0.7-0.4,1.1v8.6h-1.3V5.2H43.4z"/>
	<path class="st3" d="M56.3,16.6c0.4,0,0.7,0,1-0.1c0.3-0.1,0.6-0.2,0.9-0.5c0.3-0.2,0.5-0.5,0.6-0.9c0.2-0.4,0.3-0.8,0.3-1.4h1.2
		c0,0.7-0.2,1.3-0.4,1.8c-0.2,0.5-0.5,0.9-0.9,1.3c-0.4,0.3-0.8,0.6-1.3,0.8c-0.5,0.2-1,0.3-1.5,0.3c-1.5,0-2.6-0.5-3.4-1.4
		c-0.8-1-1.1-2.4-1.1-4.3v-1.4c0-1.9,0.4-3.3,1.1-4.3c0.8-1,1.9-1.4,3.4-1.4c0.6,0,1.1,0.1,1.6,0.3c0.5,0.2,0.9,0.5,1.3,0.8
		c0.4,0.4,0.6,0.8,0.9,1.4c0.2,0.6,0.3,1.2,0.4,2h-1.2c0-0.6-0.1-1.1-0.3-1.5c-0.2-0.4-0.4-0.7-0.6-1c-0.2-0.3-0.5-0.4-0.9-0.6
		c-0.3-0.1-0.7-0.2-1.1-0.2c-0.6,0-1.1,0.1-1.5,0.3c-0.4,0.2-0.7,0.5-1,0.9c-0.3,0.4-0.4,0.9-0.6,1.4C53.1,9.3,53,10,53,10.7v1.4
		c0,0.7,0.1,1.4,0.2,1.9c0.1,0.6,0.3,1,0.5,1.4c0.3,0.4,0.6,0.7,1,0.9C55.2,16.5,55.7,16.6,56.3,16.6z"/>
	<path class="st3" d="M61.3,10.7c0-0.9,0.1-1.8,0.3-2.5c0.2-0.7,0.5-1.3,0.9-1.8s0.9-0.9,1.4-1.1c0.6-0.3,1.2-0.4,1.8-0.4
		c0.7,0,1.3,0.1,1.9,0.4c0.6,0.3,1,0.6,1.4,1.1s0.7,1.1,0.9,1.8c0.2,0.7,0.3,1.5,0.3,2.5V12c0,0.9-0.1,1.8-0.3,2.5
		c-0.2,0.7-0.5,1.3-0.9,1.8c-0.4,0.5-0.9,0.9-1.4,1.1c-0.6,0.3-1.2,0.4-1.8,0.4c-0.7,0-1.3-0.1-1.9-0.4c-0.6-0.3-1-0.6-1.4-1.1
		c-0.4-0.5-0.7-1.1-0.9-1.8c-0.2-0.7-0.3-1.5-0.3-2.5V10.7z M62.6,12c0,0.7,0.1,1.3,0.2,1.9c0.1,0.6,0.4,1,0.6,1.4
		c0.3,0.4,0.6,0.7,1,0.9c0.4,0.2,0.9,0.3,1.4,0.3c0.6,0,1-0.1,1.4-0.3c0.4-0.2,0.7-0.5,1-0.9c0.3-0.4,0.5-0.9,0.6-1.4
		c0.1-0.6,0.2-1.2,0.2-1.9v-1.3c0-0.7-0.1-1.3-0.2-1.9c-0.1-0.6-0.4-1.1-0.6-1.5s-0.6-0.7-1-0.9c-0.4-0.2-0.9-0.3-1.4-0.3
		c-0.5,0-1,0.1-1.4,0.3c-0.4,0.2-0.7,0.5-1,0.9c-0.3,0.4-0.5,0.9-0.6,1.5c-0.1,0.6-0.2,1.2-0.2,1.9V12z"/>
	<path class="st3" d="M77,6.4c-0.1,0-0.3,0-0.4-0.1c-0.1,0-0.3,0-0.4,0c-0.4,0-0.7,0.1-1,0.2c-0.3,0.1-0.6,0.3-0.8,0.6
		c-0.2,0.2-0.4,0.5-0.6,0.9c-0.2,0.3-0.3,0.7-0.4,1.1v8.6h-1.3V5.2h1.3l0,1.9c0.3-0.6,0.7-1.2,1.1-1.5c0.5-0.4,1-0.6,1.7-0.6
		c0.1,0,0.3,0,0.4,0c0.2,0,0.3,0.1,0.3,0.1L77,6.4z"/>
	<path class="st3" d="M86.6,12c0,1-0.1,1.9-0.3,2.6c-0.2,0.7-0.4,1.3-0.8,1.8s-0.8,0.8-1.2,1.1c-0.5,0.2-1.1,0.4-1.7,0.4
		c-0.7,0-1.4-0.2-1.9-0.5c-0.5-0.3-1-0.7-1.3-1.3v6.3h-1.3V5.2h1.2l0.1,1.7c0.3-0.6,0.8-1.1,1.3-1.4c0.5-0.3,1.2-0.5,1.9-0.5
		c0.6,0,1.2,0.1,1.7,0.3c0.5,0.2,0.9,0.6,1.3,1c0.3,0.5,0.6,1.1,0.8,1.8s0.3,1.6,0.3,2.7V12z M85.3,10.8c0-1.6-0.2-2.8-0.7-3.5
		c-0.5-0.7-1.3-1.1-2.3-1.1c-0.4,0-0.7,0.1-1,0.2c-0.3,0.1-0.6,0.3-0.8,0.5c-0.2,0.2-0.4,0.4-0.6,0.7c-0.2,0.2-0.3,0.5-0.4,0.8v6.5
		c0.1,0.3,0.3,0.5,0.5,0.7c0.2,0.2,0.4,0.4,0.6,0.6c0.2,0.2,0.5,0.3,0.8,0.4c0.3,0.1,0.6,0.1,1,0.1c1,0,1.8-0.4,2.3-1.1
		c0.5-0.8,0.7-1.9,0.7-3.5V10.8z"/>
</g>
</svg>
