<?xml version="1.0" encoding="utf-8"?>
<!-- Generator: Adobe Illustrator 22.0.0, SVG Export Plug-In . SVG Version: 6.00 Build 0)  -->
<svg version="1.1" id="Layer_1" xmlns="http://www.w3.org/2000/svg" xmlns:xlink="http://www.w3.org/1999/xlink" x="0px" y="0px"
	 viewBox="0 0 57 57" style="enable-background:new 0 0 57 57;" xml:space="preserve">
<style type="text/css">
	.st0{fill:#B1B4BC;}
	.st1{fill:#CED1D6;}
	.st2{fill:#E8EAEF;}
	.st3{fill:#FFFFFF;}
	.st4{fill:#333333;}
	.st5{fill:#007EFF;}
	.st6{fill:#00A6FF;}
	.st7{fill:#00D4FF;}
	.st8{fill:#00F5FF;}
	.st9{fill:#00C9FF;}
	.st10{fill:#DEFEFF;}
	.st11{fill:#AEEAFF;}
	.st12{fill:#007FB7;}
	.st13{fill:#00638E;}
	.st14{fill:#00B7FF;}
	.st15{fill:#FAFDFF;}
	.st16{fill:#94D4FF;}
	.st17{fill:#007CB2;}
	.st18{fill:#008AB8;}
	.st19{fill:#0091B8;}
	.st20{fill:#0076BD;}
	.st21{fill:#4D4D4D;}
	.st22{fill:#0062B2;}
	.st23{fill:#00AFC6;}
	.st24{fill:#F2F7F9;}
	.st25{fill:#009FAB;}
	.st26{fill:#B7EDEB;}
	.st27{fill:#9BE0D9;}
	.st28{fill:#00C4C4;}
	.st29{fill:#3272B2;}
	.st30{fill:#0068FF;}
	.st31{fill:#1AE0B1;}
	.st32{fill:none;stroke:#4BB9EA;stroke-miterlimit:10;}
</style>
<g>
	<g>
		<path class="st5" d="M3.7,39.6c0,0-4.2-11.9-2.6-18.9c2.4-10.6,25.6-10.1,25.6-10.1s-9.1,2.7-13.9,8C2.9,29.5,3.7,39.6,3.7,39.6z"
			/>
	</g>
	<g>
		<path class="st6" d="M6.4,12.6c0,0,8.2-9.6,15.1-11.7C31.9-2.4,43,18,43,18s-6.9-6.5-13.9-8.1C14.9,6.9,6.4,12.6,6.4,12.6z"/>
	</g>
	<g>
		<path class="st7" d="M31.3,1.4c0,0,12.4,2.3,17.7,7.2c8,7.3-4.1,27.2-4.1,27.2s2.2-9.3,0-16.1C40.4,5.9,31.3,1.4,31.3,1.4z"/>
	</g>
	<g>
		<path class="st8" d="M53.3,17.4c0,0,4.2,11.9,2.6,18.9c-2.4,10.6-25.6,10.1-25.6,10.1s9.1-2.7,13.9-8
			C54.1,27.5,53.3,17.4,53.3,17.4z"/>
	</g>
	<g>
		<path class="st7" d="M50.6,44.4c0,0-8.2,9.6-15.1,11.7C25.1,59.4,14,39,14,39s6.9,6.5,13.9,8.1C42.1,50.1,50.6,44.4,50.6,44.4z"/>
	</g>
	<g>
		<path class="st6" d="M25.7,55.6c0,0-12.4-2.3-17.7-7.2c-8-7.3,4.1-27.2,4.1-27.2s-2.2,9.3,0,16.1C16.6,51.1,25.7,55.6,25.7,55.6z"
			/>
	</g>
</g>
</svg>
